<svg xmlns="http://www.w3.org/2000/svg" xmlns:xlink="http://www.w3.org/1999/xlink" width="104" height="34" viewBox="0 0 104 34">
  <defs>
    <linearGradient id="linear-gradient" y1="0.5" x2="1" y2="0.5" gradientUnits="objectBoundingBox">
      <stop offset="0.006" stop-color="#d80623"/>
      <stop offset="0.542" stop-color="#db7525"/>
      <stop offset="1" stop-color="#db8d25"/>
    </linearGradient>
    <linearGradient id="linear-gradient-2" x1="0.128" y1="0.836" x2="0.895" y2="0.193" gradientUnits="objectBoundingBox">
      <stop offset="0.006" stop-color="#d80623"/>
      <stop offset="1" stop-color="#db7525"/>
      <stop offset="1" stop-color="#db8d25"/>
    </linearGradient>
    <linearGradient id="linear-gradient-3" x1="0.5" y1="1" x2="0.5" y2="0" xlink:href="#linear-gradient"/>
    <linearGradient id="linear-gradient-4" y1="0.5" x2="1" y2="0.5" gradientUnits="objectBoundingBox">
      <stop offset="0.006" stop-color="#d80623"/>
      <stop offset="1" stop-color="#db7525"/>
    </linearGradient>
    <linearGradient id="linear-gradient-6" x1="0.146" y1="0.854" x2="0.854" y2="0.146" xlink:href="#linear-gradient"/>
    <linearGradient id="linear-gradient-7" x1="0.146" y1="0.854" x2="0.854" y2="0.146" xlink:href="#linear-gradient"/>
    <linearGradient id="linear-gradient-8" x1="0.146" y1="0.854" x2="0.854" y2="0.146" xlink:href="#linear-gradient"/>
    <linearGradient id="linear-gradient-9" x1="0.146" y1="0.854" x2="0.854" y2="0.146" xlink:href="#linear-gradient"/>
    <linearGradient id="linear-gradient-10" x1="0.146" y1="0.854" x2="0.854" y2="0.146" xlink:href="#linear-gradient"/>
  </defs>
  <g id="그룹_5356" data-name="그룹 5356" transform="translate(-615 173)">
    <g id="그룹_5355" data-name="그룹 5355" transform="translate(615 -169)">
      <g id="그룹_5259" data-name="그룹 5259" transform="translate(0 0)">
        <path id="패스_13840" data-name="패스 13840" d="M170.577,158.817" transform="translate(-145.615 -140.243)" fill="#040000" stroke="#d28828" stroke-miterlimit="10" stroke-width="2"/>
        <path id="패스_13841" data-name="패스 13841" d="M108.213,102.445H97.742a2.417,2.417,0,0,0,0,4.831h10.47a2.417,2.417,0,0,0,0-4.831Z" transform="translate(-94.485 -102.445)" fill="url(#linear-gradient)"/>
        <path id="패스_13842" data-name="패스 13842" d="M106.608,125.839a8.1,8.1,0,0,0-5.42-2.476c-.071-.007-.142-.011-.215-.011h-1.4a2.417,2.417,0,0,0,0,4.832h1.2a3.48,3.48,0,0,1,2.513,1.072,3.738,3.738,0,0,1,0,5.177,3.482,3.482,0,0,1-5.026,0,3.7,3.7,0,0,1-1.03-2.292,2.347,2.347,0,1,0-4.677.382,8.605,8.605,0,0,0,2.389,5.327,8.078,8.078,0,0,0,11.661,0,8.674,8.674,0,0,0,0-12.009Z" transform="translate(-92.55 -116.463)" fill="url(#linear-gradient-2)"/>
        <path id="패스_13843" data-name="패스 13843" d="M159.558,102.444a2.384,2.384,0,0,0-2.345,2.416V123.9a2.346,2.346,0,1,0,4.69,0V104.86A2.384,2.384,0,0,0,159.558,102.444Z" transform="translate(-136.526 -102.444)" fill="url(#linear-gradient-3)"/>
        <path id="패스_13844" data-name="패스 13844" d="M151.006,103.153a2.3,2.3,0,0,0-3.317,0l-4.8,4.947a2.468,2.468,0,0,0,0,3.417,2.3,2.3,0,0,0,3.318,0l4.8-4.947A2.471,2.471,0,0,0,151.006,103.153Z" transform="translate(-126.316 -102.446)" fill="url(#linear-gradient-4)"/>
        <path id="패스_13845" data-name="패스 13845" d="M117.911,103.153a2.3,2.3,0,0,0-3.318,0l-6.688,6.889a2.468,2.468,0,0,0,0,3.417,2.3,2.3,0,0,0,3.318,0l6.688-6.889A2.471,2.471,0,0,0,117.911,103.153Z" transform="translate(-102.526 -102.446)" fill="url(#linear-gradient-4)"/>
      </g>
      <g id="그룹_5260" data-name="그룹 5260" transform="translate(29.35 7.471)">
        <path id="패스_13846" data-name="패스 13846" d="M339.5,146.532a1.053,1.053,0,0,0-.443-.258,2.023,2.023,0,0,0-1.152,0,1.2,1.2,0,0,0-.471.264,1.517,1.517,0,0,0-.348.486,1.59,1.59,0,0,0-.134.58H339.9a1.757,1.757,0,0,0-.095-.592A1.371,1.371,0,0,0,339.5,146.532Z" transform="translate(-288.114 -139.248)" fill="none"/>
        <path id="패스_13847" data-name="패스 13847" d="M232.194,136.9a1.739,1.739,0,0,0-.593-.375,2.521,2.521,0,0,0-.729-.15,1.663,1.663,0,0,0-.686.1,1.636,1.636,0,0,0-.591.381,1.757,1.757,0,0,0-.4.7l-2.221,6.713-2.41-6.707a1.894,1.894,0,0,0-.425-.707,1.618,1.618,0,0,0-.591-.382,1.7,1.7,0,0,0-.7-.1,2.373,2.373,0,0,0-.729.15,1.732,1.732,0,0,0-.614.374,1.706,1.706,0,0,0-.4.574,1.916,1.916,0,0,0-.152.716,1.807,1.807,0,0,0,.171.786l3.989,9.226-.018.059a1.454,1.454,0,0,1-.88.73,2.4,2.4,0,0,1-1.235.065,2.253,2.253,0,0,0-.4-.04,1.122,1.122,0,0,0-.8.289,1.712,1.712,0,0,0-.519,1.03,1.683,1.683,0,0,0,.037.591,1.5,1.5,0,0,0,.254.542,1.637,1.637,0,0,0,.466.425,1.741,1.741,0,0,0,.676.227,5.157,5.157,0,0,0,3.449-.56,5.9,5.9,0,0,0,2.331-2.926l4.093-9.653a2.171,2.171,0,0,0,.162-.793,1.912,1.912,0,0,0-.134-.714A1.63,1.63,0,0,0,232.194,136.9Z" transform="translate(-209.22 -132.665)" fill="#fff"/>
        <path id="패스_13848" data-name="패스 13848" d="M268.3,141.236l-.732-.158a9.279,9.279,0,0,1-1.577-.39c-.48-.188-.552-.5-.531-.723a.786.786,0,0,1,.369-.581,1.9,1.9,0,0,1,1.383-.18,4.525,4.525,0,0,1,.6.125c.192.055.376.113.547.175a2.012,2.012,0,0,1,.466.23,1.07,1.07,0,0,0,.332.148,1.458,1.458,0,0,0,.39.063,1.8,1.8,0,0,0,.859-.2,1.088,1.088,0,0,0,.5-.7,1.369,1.369,0,0,0-.138-1.129,2.407,2.407,0,0,0-.891-.872,5.228,5.228,0,0,0-1.3-.5,7.8,7.8,0,0,0-1.964-.215,7.293,7.293,0,0,0-1.41.136,5.533,5.533,0,0,0-1.274.419,3.974,3.974,0,0,0-1.048.721,3.48,3.48,0,0,0-.729,1.032,4.6,4.6,0,0,0-.376,1.446,3.45,3.45,0,0,0,.166,1.468,3.22,3.22,0,0,0,.854,1.283,4.368,4.368,0,0,0,1.722.934c.118.04.242.075.372.108s.27.062.411.088a17.913,17.913,0,0,1,1.787.457c.508.17.746.426.711.76a.876.876,0,0,1-.415.611,1.725,1.725,0,0,1-.965.229,5.964,5.964,0,0,1-1.182-.124,2.831,2.831,0,0,1-.956-.344c-.164-.106-.339-.211-.519-.318a1.1,1.1,0,0,0-.556-.119l-.092,0a1.859,1.859,0,0,0-.651.147,1.066,1.066,0,0,0-.46.4,1.359,1.359,0,0,0-.2,1.145,2.088,2.088,0,0,0,.637,1.008,3.139,3.139,0,0,0,.817.5,5.634,5.634,0,0,0,.983.321,7.988,7.988,0,0,0,1.039.167,9.046,9.046,0,0,0,2.908-.157,5.43,5.43,0,0,0,1.56-.613,3.259,3.259,0,0,0,1.609-2.48,3.879,3.879,0,0,0-.568-2.81A4.323,4.323,0,0,0,268.3,141.236Z" transform="translate(-236.966 -132.633)" fill="#fff"/>
        <path id="패스_13849" data-name="패스 13849" d="M302.266,132.171a1.428,1.428,0,0,0,1.179-.438,1.589,1.589,0,0,0,.363-1.032,1.707,1.707,0,0,0-.09-.547,1.4,1.4,0,0,0-.268-.481,1.34,1.34,0,0,0-.469-.347,1.7,1.7,0,0,0-.716-.134h-1.325v-2.264a2.087,2.087,0,0,0-.148-.811,1.643,1.643,0,0,0-.395-.56,1.713,1.713,0,0,0-.559-.327,2.008,2.008,0,0,0-1.311,0,1.751,1.751,0,0,0-.559.327,1.66,1.66,0,0,0-.393.561,2.04,2.04,0,0,0-.15.81v2.264h-.815a1.766,1.766,0,0,0-.729.135,1.268,1.268,0,0,0-.734.822,2.084,2.084,0,0,0-.078.551,1.593,1.593,0,0,0,.36,1.032,1.43,1.43,0,0,0,1.182.438h.815V137.4a5.792,5.792,0,0,0,.263,1.867,2.839,2.839,0,0,0,.75,1.192,3.052,3.052,0,0,0,1.219.665,6.1,6.1,0,0,0,1.687.214,3.176,3.176,0,0,0,.963-.154,3.127,3.127,0,0,0,.8-.36,1.68,1.68,0,0,0,.573-.691,1.547,1.547,0,0,0,.076-.987,1.18,1.18,0,0,0-.406-.7,1.153,1.153,0,0,0-.752-.263,1.638,1.638,0,0,0-.422.044,1.237,1.237,0,0,1-.455.035.971.971,0,0,1-.524-.194.886.886,0,0,1-.254-.744v-5.153Z" transform="translate(-259.629 -125.12)" fill="#fff"/>
        <path id="패스_13850" data-name="패스 13850" d="M333.85,137.483a3.857,3.857,0,0,0-1.65-.913,7.747,7.747,0,0,0-1.934-.245,7.1,7.1,0,0,0-1.877.264,4.88,4.88,0,0,0-1.733.883,4.716,4.716,0,0,0-1.274,1.645,5.953,5.953,0,0,0-.5,2.59v1.766a5.7,5.7,0,0,0,.517,2.558,4.561,4.561,0,0,0,1.348,1.654,5.494,5.494,0,0,0,1.884.9,7.914,7.914,0,0,0,3.1.206,8.133,8.133,0,0,0,.953-.186,7.171,7.171,0,0,0,.8-.255,3.65,3.65,0,0,0,.568-.268,2.367,2.367,0,0,0,.939-.961,1.393,1.393,0,0,0-.014-1.2.981.981,0,0,0-.524-.55,1.621,1.621,0,0,0-.838-.108,2.076,2.076,0,0,0-.436.12c-.152.061-.3.119-.441.173a4.415,4.415,0,0,1-.815.208,7.716,7.716,0,0,1-1.133.063,3.5,3.5,0,0,1-.78-.094,2.358,2.358,0,0,1-.776-.335,2.019,2.019,0,0,1-.6-.615,1.773,1.773,0,0,1-.242-.958v-.177l.171-.02H335.4c.016-.137.032-.291.044-.461.021-.235.03-.437.03-.607a9.452,9.452,0,0,0-.448-3.179A4.708,4.708,0,0,0,333.85,137.483Zm-1.823,3.859H328.4v-.177a2.17,2.17,0,0,1,.171-.91,1.9,1.9,0,0,1,.432-.6,1.583,1.583,0,0,1,.6-.337,2.4,2.4,0,0,1,1.346,0,1.38,1.38,0,0,1,.584.343,1.726,1.726,0,0,1,.385.6,2.338,2.338,0,0,1,.118.906Z" transform="translate(-279.903 -132.633)" fill="#fff"/>
        <path id="패스_13851" data-name="패스 13851" d="M379.2,137.449a3.5,3.5,0,0,0-1.4-.862,5.61,5.61,0,0,0-1.72-.262,4.886,4.886,0,0,0-1.98.366,4.336,4.336,0,0,0-1.406.984l-.132.141-.122-.15a3.363,3.363,0,0,0-1.371-1.032,4.523,4.523,0,0,0-1.655-.309,3.611,3.611,0,0,0-2.611,1.055l-.176.172-.1-.229a1.511,1.511,0,0,0-.656-.74,2.007,2.007,0,0,0-1.664-.139,1.737,1.737,0,0,0-.563.347,1.632,1.632,0,0,0-.4.564,1.939,1.939,0,0,0-.152.8V146.7a1.787,1.787,0,0,0,1.757,1.81h.1a1.786,1.786,0,0,0,1.759-1.81v-5.4a2.422,2.422,0,0,1,.178-.886,1.867,1.867,0,0,1,.4-.59,1.512,1.512,0,0,1,.54-.327,1.59,1.59,0,0,1,1.1,0,1.443,1.443,0,0,1,.552.35,1.769,1.769,0,0,1,.4.634,2.587,2.587,0,0,1,.148.919v5.3a1.76,1.76,0,1,0,3.518,0v-5.3a2.4,2.4,0,0,1,.159-.923,2.019,2.019,0,0,1,.395-.627,1.4,1.4,0,0,1,.556-.354,1.774,1.774,0,0,1,.559-.1,1.682,1.682,0,0,1,.551.1,1.467,1.467,0,0,1,.554.35,1.825,1.825,0,0,1,.4.634,2.587,2.587,0,0,1,.148.919v5.3a1.786,1.786,0,0,0,1.759,1.81h.157a1.787,1.787,0,0,0,1.757-1.81v-5.057a7.75,7.75,0,0,0-.372-2.568A4.289,4.289,0,0,0,379.2,137.449Z" transform="translate(-305.891 -132.633)" fill="#fff"/>
        <path id="패스_13852" data-name="패스 13852" d="M194.314,133.909a4.968,4.968,0,0,0-1.139-1.1,6.816,6.816,0,0,0-1.511-.783l-.954-.34a9.362,9.362,0,0,1-1.843-.819,1.3,1.3,0,0,1-.215-2.171,2,2,0,0,1,1.2-.324,4.828,4.828,0,0,1,1.476.189,3.778,3.778,0,0,1,.938.443,1.214,1.214,0,0,0,.361.157,1.58,1.58,0,0,0,.44.073,1.869,1.869,0,0,0,.939-.238,1.281,1.281,0,0,0,.574-.783,1.569,1.569,0,0,0-.151-1.262,2.556,2.556,0,0,0-.995-1c-.177-.089-.372-.187-.584-.286a4.032,4.032,0,0,0-.73-.25,8.139,8.139,0,0,0-.991-.177,11.125,11.125,0,0,0-1.316-.069,5.986,5.986,0,0,0-3.288.856,4.3,4.3,0,0,0-1.807,2.413,4.994,4.994,0,0,0-.237,1.609,4.483,4.483,0,0,0,.338,1.649,4.753,4.753,0,0,0,.986,1.49,5.3,5.3,0,0,0,1.738,1.155q.173.08.429.178c.174.066.339.126.492.178.41.137.794.276,1.14.415a8.5,8.5,0,0,1,.942.439,2.224,2.224,0,0,1,.665.523,1.027,1.027,0,0,1,.256.656,1.294,1.294,0,0,1-.546,1.111,2.427,2.427,0,0,1-1.361.33,5.931,5.931,0,0,1-1.566-.157,3.216,3.216,0,0,1-.9-.393l-.569-.336a1.2,1.2,0,0,0-.623-.139l-.092,0a1.938,1.938,0,0,0-.713.185,1.179,1.179,0,0,0-.531.457,1.72,1.72,0,0,0-.25.645,1.594,1.594,0,0,0,.027.639,2.161,2.161,0,0,0,.262.6,2.286,2.286,0,0,0,.435.513,4.875,4.875,0,0,0,1.934.9,10.609,10.609,0,0,0,2.475.287,6.654,6.654,0,0,0,4.116-1.149,4.116,4.116,0,0,0,1.618-3.2,5.08,5.08,0,0,0-.171-1.713A4.333,4.333,0,0,0,194.314,133.909Z" transform="translate(-184.29 -125.16)" fill="#fff"/>
      </g>
      <path id="패스_13853" data-name="패스 13853" d="M187.186,162.974a1.649,1.649,0,1,1-1.648-1.7A1.674,1.674,0,0,1,187.186,162.974Z" transform="translate(-154.669 -141.893)" fill="url(#linear-gradient-6)"/>
      <path id="패스_13854" data-name="패스 13854" d="M210.183,129.509a1.565,1.565,0,1,1-1.563-1.611A1.587,1.587,0,0,1,210.183,129.509Z" transform="translate(-170.423 -119.511)" fill="url(#linear-gradient-7)"/>
      <path id="패스_13855" data-name="패스 13855" d="M366.682,164.779a1.836,1.836,0,1,1-1.835-1.889A1.862,1.862,0,0,1,366.682,164.779Z" transform="translate(-276.487 -142.975)" fill="url(#linear-gradient-8)"/>
      <path id="패스_13856" data-name="패스 13856" d="M388.271,165.141a1.767,1.767,0,1,1-1.763-1.817A1.791,1.791,0,0,1,388.271,165.141Z" transform="translate(-291.26 -143.266)" fill="url(#linear-gradient-9)"/>
      <path id="패스_13857" data-name="패스 13857" d="M409.832,164.779a1.834,1.834,0,1,1-1.837-1.889A1.863,1.863,0,0,1,409.832,164.779Z" transform="translate(-305.835 -142.975)" fill="url(#linear-gradient-10)"/>
    </g>
    <rect id="사각형_149" data-name="사각형 149" width="104" height="34" transform="translate(615 -173)" fill="none"/>
  </g>
</svg>
